<svg width="800" height="800" viewBox="0 0 800 800" fill="none" xmlns="http://www.w3.org/2000/svg">
<rect width="800" height="800" fill="#141414"/>
<path d="M376.988 169.92H222.826C217.751 169.92 213.358 173.448 212.263 178.403L111 636.439H265.162C270.237 636.439 274.63 632.912 275.725 627.957L376.988 169.92Z" fill="#4FE570"/>
<path d="M472.259 223.531L332 373L318 437L335.52 463.46L501.753 267.928L472.259 223.531Z" fill="#4FE570"/>
<path d="M530.53 157.282L478.329 217.667L508.668 263.3L577.189 190.103L540.417 156.675C537.543 154.063 533.076 154.337 530.53 157.282Z" fill="#4FE570"/>
<path d="M428.023 371.215L341.17 470.809L449.736 628.063C466.021 649.03 530.821 664.756 574.588 628.063C598.259 608.217 609.95 595.375 628.871 570.403C628.871 570.403 666.869 507.502 677.726 481.293C688.583 455.084 696.699 423.662 677.726 392.182L582.041 198.586L514.876 271.621L639.728 455.084C642.284 460.593 643.841 472.182 637.079 482.373C637.079 482.373 596.301 549.436 580.016 554.678C563.731 559.92 553.923 559.495 542.018 544.194L428.023 371.215Z" fill="#4FE570"/>
</svg>
